# xmcd
#
# Track frame offsets:
#	150
#	15224
#	28101
#	42078
#	56736
#	71428
#	85550
#	100480
#	115366
#	130869
#	145177
#	159726
#	175003
#	189366
# Disc length: 2739 seconds
# Revision: 1
# Processed by: cddbd v1.5.2PL0 Copyright (c) Steve Scherf et al.
#
# Submitted via: libkcddb 0.31
#
DISCID=b10ab10e
DTITLE=Artista Desconhecido - Título Desconhecido
DYEAR=1900
DGENRE=
TTITLE0=Faixa 01
TTITLE1=Faixa 02
TTITLE2=Faixa 03
TTITLE3=Faixa 04
TTITLE4=Faixa 05
TTITLE5=Faixa 06
TTITLE6=Faixa 07
TTITLE7=Faixa 08
TTITLE8=Faixa 09
TTITLE9=Faixa 10
TTITLE10=Faixa 11
TTITLE11=Faixa 12
TTITLE12=Faixa 13
TTITLE13=Faixa 14
EXTD=
EXTT0=
EXTT1=
EXTT2=
EXTT3=
EXTT4=
EXTT5=
EXTT6=
EXTT7=
EXTT8=
EXTT9=
EXTT10=
EXTT11=
EXTT12=
EXTT13=
PLAYORDER=
